<svg width="60" height="46" viewBox="0 0 60 46" fill="none" xmlns="http://www.w3.org/2000/svg">
<path d="M9.22056 42.4485C9.06321 43.2619 9.595 44.0488 10.4084 44.2061C11.2217 44.3635 12.0086 43.8317 12.166 43.0184L9.22056 42.4485ZM50.5841 3.7912C51.405 3.68023 51.9806 2.92474 51.8696 2.10378C51.7586 1.28282 51.0032 0.707267 50.1822 0.818242L50.5841 3.7912ZM4.78725 32.3308C4.36038 31.6208 3.43878 31.3913 2.7288 31.8182C2.01882 32.2451 1.78931 33.1667 2.21618 33.8766L4.78725 32.3308ZM8.9767 42.2098L7.69117 42.9828L7.69189 42.984L8.9767 42.2098ZM12.5932 43.2606L11.9803 41.8916L11.979 41.8921L12.5932 43.2606ZM23.5123 40.0155C24.2684 39.677 24.6069 38.7897 24.2684 38.0336C23.9299 37.2774 23.0425 36.9389 22.2864 37.2774L23.5123 40.0155ZM10.6933 42.7334C12.166 43.0184 12.1659 43.0187 12.1658 43.019C12.1658 43.0189 12.1658 43.0192 12.1658 43.0192C12.1658 43.0192 12.1658 43.0189 12.166 43.0184C12.1662 43.0173 12.1666 43.0152 12.1672 43.012C12.1684 43.0058 12.1705 42.9953 12.1735 42.9808C12.1794 42.9517 12.1887 42.9064 12.2016 42.8456C12.2274 42.7239 12.2676 42.5403 12.3233 42.3008C12.4349 41.8216 12.6088 41.1193 12.8551 40.2421C13.3481 38.4863 14.1291 36.0371 15.2773 33.2782C17.5833 27.7375 21.3236 21.0615 27.0838 16.2002L26.1164 15.0539L25.1489 13.9076C18.8763 19.2013 14.905 26.3651 12.5076 32.1255C11.3042 35.0171 10.4856 37.5837 9.96684 39.4311C9.7073 40.3554 9.52235 41.1015 9.40152 41.6204C9.34109 41.8799 9.29667 42.0827 9.26695 42.2227C9.25209 42.2927 9.24091 42.3471 9.23323 42.385C9.22939 42.4039 9.22643 42.4187 9.22432 42.4294C9.22327 42.4347 9.22243 42.4389 9.22181 42.4421C9.22149 42.4437 9.22123 42.4451 9.22103 42.4461C9.22092 42.4467 9.22081 42.4473 9.22075 42.4475C9.22065 42.4481 9.22056 42.4485 10.6933 42.7334ZM26.1164 15.0539L27.0838 16.2002C38.8964 6.23107 48.2848 4.10201 50.5841 3.7912L50.3831 2.30472L50.1822 0.818242C47.3237 1.20465 37.402 3.56662 25.1489 13.9076L26.1164 15.0539ZM3.50172 33.1037L2.21618 33.8766L7.69117 42.9828L8.9767 42.2098L10.2622 41.4369L4.78725 32.3308L3.50172 33.1037ZM8.9767 42.2098L7.69189 42.984C8.83415 44.8798 11.2204 45.5209 13.2074 44.6291L12.5932 43.2606L11.979 41.8921C11.2779 42.2068 10.5661 41.9412 10.2615 41.4357L8.9767 42.2098ZM12.5932 43.2606L13.2061 44.6297L23.5123 40.0155L22.8994 38.6465L22.2864 37.2774L11.9803 41.8916L12.5932 43.2606Z" fill="#6941C6"/>
</svg>
