<svg width="237" height="20" viewBox="0 0 237 20" fill="none" xmlns="http://www.w3.org/2000/svg">
<path d="M1.33301 6.66663L6.77629 10.4769C7.21707 10.7855 7.43746 10.9397 7.67718 10.9995C7.88894 11.0523 8.11041 11.0523 8.32217 10.9995C8.56189 10.9397 8.78228 10.7855 9.22306 10.4769L14.6663 6.66663M4.53301 15.3333H11.4663C12.5864 15.3333 13.1465 15.3333 13.5743 15.1153C13.9506 14.9236 14.2566 14.6176 14.4484 14.2413C14.6663 13.8135 14.6663 13.2534 14.6663 12.1333V7.86663C14.6663 6.74652 14.6663 6.18647 14.4484 5.75865C14.2566 5.38232 13.9506 5.07636 13.5743 4.88461C13.1465 4.66663 12.5864 4.66663 11.4663 4.66663H4.53301C3.4129 4.66663 2.85285 4.66663 2.42503 4.88461C2.0487 5.07636 1.74274 5.38232 1.55099 5.75865C1.33301 6.18647 1.33301 6.74652 1.33301 7.86663V12.1333C1.33301 13.2534 1.33301 13.8135 1.55099 14.2413C1.74274 14.6176 2.0487 14.9236 2.42503 15.1153C2.85285 15.3333 3.4129 15.3333 4.53301 15.3333Z" stroke="#A4A7AE" stroke-width="1.33333" stroke-linecap="round" stroke-linejoin="round"/>
<path d="M23.233 15V4.81818H24.4062V8.5767H24.5057C24.5919 8.44413 24.7112 8.27509 24.8636 8.0696C25.0194 7.8608 25.2415 7.67519 25.5298 7.51278C25.8215 7.34706 26.2159 7.2642 26.7131 7.2642C27.3561 7.2642 27.9228 7.42495 28.4134 7.74645C28.9039 8.06794 29.2867 8.52367 29.5618 9.11364C29.8369 9.7036 29.9744 10.3996 29.9744 11.2017C29.9744 12.0104 29.8369 12.7114 29.5618 13.3047C29.2867 13.8946 28.9055 14.352 28.4183 14.6768C27.9311 14.9983 27.3693 15.1591 26.733 15.1591C26.2424 15.1591 25.8497 15.0779 25.5547 14.9155C25.2597 14.7498 25.0327 14.5625 24.8736 14.3537C24.7145 14.1416 24.5919 13.9659 24.5057 13.8267H24.3665V15H23.233ZM24.3864 11.1818C24.3864 11.7585 24.4709 12.2673 24.6399 12.7081C24.8089 13.1456 25.0559 13.4886 25.3807 13.7372C25.7055 13.9825 26.1032 14.1051 26.5739 14.1051C27.0644 14.1051 27.4737 13.9759 27.8018 13.7173C28.1333 13.4555 28.3819 13.1042 28.5476 12.6634C28.7166 12.2192 28.8011 11.7254 28.8011 11.1818C28.8011 10.6449 28.7183 10.161 28.5526 9.73011C28.3902 9.29593 28.1432 8.95289 27.8118 8.70099C27.4837 8.44579 27.071 8.31818 26.5739 8.31818C26.0966 8.31818 25.6955 8.43916 25.3707 8.68111C25.0459 8.91974 24.8007 9.2545 24.6349 9.68537C24.4692 10.1129 24.3864 10.6117 24.3864 11.1818ZM31.7692 15V7.36364H32.9425V15H31.7692ZM32.3658 6.09091C32.1371 6.09091 31.9399 6.01302 31.7741 5.85724C31.6117 5.70147 31.5305 5.5142 31.5305 5.29545C31.5305 5.0767 31.6117 4.88944 31.7741 4.73366C31.9399 4.57789 32.1371 4.5 32.3658 4.5C32.5945 4.5 32.79 4.57789 32.9524 4.73366C33.1181 4.88944 33.201 5.0767 33.201 5.29545C33.201 5.5142 33.1181 5.70147 32.9524 5.85724C32.79 6.01302 32.5945 6.09091 32.3658 6.09091ZM36.2647 4.81818V15H35.0914V4.81818H36.2647ZM39.587 4.81818V15H38.4137V4.81818H39.587ZM41.736 15V7.36364H42.9093V15H41.736ZM42.3326 6.09091C42.1039 6.09091 41.9067 6.01302 41.7409 5.85724C41.5785 5.70147 41.4973 5.5142 41.4973 5.29545C41.4973 5.0767 41.5785 4.88944 41.7409 4.73366C41.9067 4.57789 42.1039 4.5 42.3326 4.5C42.5613 4.5 42.7568 4.57789 42.9192 4.73366C43.0849 4.88944 43.1678 5.0767 43.1678 5.29545C43.1678 5.5142 43.0849 5.70147 42.9192 5.85724C42.7568 6.01302 42.5613 6.09091 42.3326 6.09091ZM46.2315 10.4062V15H45.0582V7.36364H46.1918V8.55682H46.2912C46.4702 8.16903 46.742 7.85748 47.1065 7.62216C47.4711 7.38352 47.9418 7.2642 48.5185 7.2642C49.0355 7.2642 49.4879 7.37027 49.8757 7.58239C50.2635 7.79119 50.5651 8.10938 50.7805 8.53693C50.996 8.96117 51.1037 9.49811 51.1037 10.1477V15H49.9304V10.2273C49.9304 9.62737 49.7746 9.16004 49.4631 8.82528C49.1515 8.48722 48.724 8.31818 48.1804 8.31818C47.8059 8.31818 47.4711 8.39938 47.1761 8.56179C46.8845 8.72419 46.6541 8.96117 46.4851 9.27273C46.3161 9.58428 46.2315 9.96212 46.2315 10.4062ZM56.3301 18.0227C55.7633 18.0227 55.2761 17.9498 54.8684 17.804C54.4608 17.6615 54.121 17.4725 53.8493 17.2372C53.5808 17.0052 53.367 16.7566 53.2079 16.4915L54.1426 15.8352C54.2486 15.9744 54.3829 16.1335 54.5453 16.3125C54.7077 16.4948 54.9297 16.6522 55.2115 16.7848C55.4965 16.9207 55.8694 16.9886 56.3301 16.9886C56.9466 16.9886 57.4553 16.8395 57.8564 16.5412C58.2574 16.2429 58.4579 15.7756 58.4579 15.1392V13.5881H58.3585C58.2723 13.7273 58.1497 13.8996 57.9906 14.1051C57.8348 14.3073 57.6094 14.4879 57.3145 14.647C57.0228 14.8028 56.6284 14.8807 56.1312 14.8807C55.5147 14.8807 54.9612 14.7348 54.4707 14.4432C53.9835 14.1515 53.5974 13.7273 53.3123 13.1705C53.0306 12.6136 52.8897 11.9375 52.8897 11.142C52.8897 10.3598 53.0273 9.67874 53.3024 9.09872C53.5775 8.51539 53.9603 8.06463 54.4508 7.74645C54.9413 7.42495 55.5081 7.2642 56.1511 7.2642C56.6483 7.2642 57.0427 7.34706 57.3343 7.51278C57.6293 7.67519 57.8547 7.8608 58.0105 8.0696C58.1696 8.27509 58.2922 8.44413 58.3784 8.5767H58.4977V7.36364H59.6312V15.2188C59.6312 15.875 59.4821 16.4086 59.1838 16.8196C58.8888 17.2339 58.4911 17.5372 57.9906 17.7294C57.4934 17.925 56.9399 18.0227 56.3301 18.0227ZM56.2903 13.8267C56.7609 13.8267 57.1587 13.719 57.4835 13.5036C57.8083 13.2881 58.0552 12.9782 58.2243 12.5739C58.3933 12.1695 58.4778 11.6856 58.4778 11.1222C58.4778 10.572 58.3949 10.0864 58.2292 9.66548C58.0635 9.24455 57.8182 8.91477 57.4934 8.67614C57.1686 8.4375 56.7676 8.31818 56.2903 8.31818C55.7931 8.31818 55.3788 8.44413 55.0474 8.69602C54.7193 8.94792 54.4724 9.28598 54.3066 9.71023C54.1442 10.1345 54.063 10.6051 54.063 11.1222C54.063 11.6525 54.1459 12.1214 54.3116 12.5291C54.4806 12.9335 54.7292 13.2517 55.0574 13.4837C55.3888 13.7124 55.7998 13.8267 56.2903 13.8267ZM67.6454 17.6847C66.6312 17.6847 65.7347 17.5455 64.9558 17.267C64.1769 16.992 63.5223 16.5859 62.992 16.049C62.4617 15.5121 62.0607 14.8542 61.7889 14.0753C61.5171 13.2964 61.3812 12.4048 61.3812 11.4006C61.3812 10.4295 61.5188 9.56108 61.7939 8.79545C62.0723 8.02983 62.475 7.38021 63.002 6.84659C63.5323 6.30966 64.1752 5.90033 64.9309 5.61861C65.6899 5.33688 66.5484 5.19602 67.5062 5.19602C68.4376 5.19602 69.2529 5.34848 69.9522 5.65341C70.6549 5.95502 71.2415 6.36435 71.7122 6.88139C72.1861 7.39512 72.5408 7.97348 72.7761 8.61648C73.0147 9.25947 73.1341 9.92235 73.1341 10.6051C73.1341 11.0857 73.1109 11.5729 73.0645 12.0668C73.0181 12.5606 72.9203 13.0147 72.7711 13.429C72.622 13.84 72.3916 14.1714 72.0801 14.4233C71.7718 14.6752 71.3542 14.8011 70.8272 14.8011C70.5952 14.8011 70.34 14.7647 70.0616 14.6918C69.7832 14.6188 69.5363 14.4979 69.3208 14.3288C69.1054 14.1598 68.9778 13.9328 68.938 13.6477H68.8784C68.7988 13.84 68.6762 14.0223 68.5105 14.1946C68.3481 14.367 68.1343 14.5045 67.8691 14.6072C67.6073 14.71 67.2875 14.7547 66.9096 14.7415C66.4788 14.7249 66.0993 14.6288 65.7711 14.4531C65.443 14.2741 65.1679 14.0322 64.9458 13.7273C64.7271 13.419 64.5614 13.0627 64.4487 12.6584C64.3393 12.2507 64.2846 11.8116 64.2846 11.3409C64.2846 10.8935 64.3509 10.4841 64.4835 10.1129C64.6161 9.74171 64.8 9.4169 65.0353 9.13849C65.274 8.86009 65.5524 8.63802 65.8706 8.4723C66.1921 8.30327 66.5384 8.19886 66.9096 8.15909C67.2411 8.12595 67.5427 8.14086 67.8145 8.20384C68.0862 8.26349 68.31 8.35464 68.4856 8.47727C68.6613 8.59659 68.7723 8.72917 68.8187 8.875H68.8784V8.31818H69.9324V12.8125C69.9324 13.0909 70.0102 13.3362 70.166 13.5483C70.3218 13.7604 70.5488 13.8665 70.8471 13.8665C71.1852 13.8665 71.4437 13.7505 71.6227 13.5185C71.805 13.2865 71.9293 12.9285 71.9956 12.4446C72.0652 11.9607 72.1 11.3409 72.1 10.5852C72.1 10.1411 72.0386 9.7036 71.916 9.27273C71.7967 8.83854 71.6144 8.43253 71.3691 8.05469C71.1272 7.67685 70.8206 7.34375 70.4494 7.0554C70.0782 6.76705 69.6423 6.54167 69.1419 6.37926C68.6447 6.21354 68.0796 6.13068 67.4466 6.13068C66.6677 6.13068 65.97 6.25166 65.3535 6.49361C64.7404 6.73224 64.2183 7.08191 63.7875 7.54261C63.3599 8 63.0334 8.55682 62.8081 9.21307C62.586 9.866 62.475 10.6084 62.475 11.4403C62.475 12.2855 62.586 13.0362 62.8081 13.6925C63.0334 14.3487 63.3649 14.9022 63.8024 15.353C64.2432 15.8037 64.7884 16.1451 65.438 16.3771C66.0877 16.6125 66.8367 16.7301 67.6852 16.7301C68.0498 16.7301 68.4094 16.6953 68.764 16.6257C69.1187 16.5561 69.4319 16.4799 69.7037 16.397C69.9754 16.3142 70.171 16.2528 70.2903 16.2131L70.5687 17.1278C70.3632 17.214 70.0948 17.3002 69.7633 17.3864C69.4352 17.4725 69.0839 17.5438 68.7093 17.6001C68.3381 17.6565 67.9835 17.6847 67.6454 17.6847ZM67.0687 13.7273C67.5128 13.7273 67.8725 13.6378 68.1475 13.4588C68.4226 13.2798 68.6232 13.0097 68.7491 12.6484C68.8751 12.2872 68.938 11.8314 68.938 11.2812C68.938 10.7244 68.8684 10.2902 68.7292 9.97869C68.59 9.66714 68.3845 9.44839 68.1127 9.32244C67.841 9.1965 67.5062 9.13352 67.1085 9.13352C66.7306 9.13352 66.4075 9.23295 66.139 9.43182C65.8739 9.62737 65.67 9.8892 65.5275 10.2173C65.3883 10.5421 65.3187 10.8968 65.3187 11.2812C65.3187 11.7055 65.3751 12.1049 65.4877 12.4794C65.6004 12.8506 65.7844 13.1522 66.0396 13.3842C66.2948 13.6129 66.6378 13.7273 67.0687 13.7273ZM79.7028 11.8778V7.36364H80.8761V15H79.7028V13.7074H79.6232C79.4442 14.0952 79.1658 14.425 78.788 14.6967C78.4102 14.9652 77.9329 15.0994 77.3562 15.0994C76.8789 15.0994 76.4547 14.995 76.0835 14.7862C75.7122 14.5741 75.4206 14.2559 75.2085 13.8317C74.9963 13.4041 74.8903 12.8655 74.8903 12.2159V7.36364H76.0636V12.1364C76.0636 12.6932 76.2193 13.1373 76.5309 13.4688C76.8458 13.8002 77.2468 13.9659 77.734 13.9659C78.0257 13.9659 78.3223 13.8913 78.6239 13.7422C78.9289 13.593 79.1841 13.3643 79.3896 13.0561C79.5984 12.7479 79.7028 12.3551 79.7028 11.8778ZM84.1983 10.4062V15H83.025V7.36364H84.1586V8.55682H84.258C84.437 8.16903 84.7087 7.85748 85.0733 7.62216C85.4379 7.38352 85.9086 7.2642 86.4853 7.2642C87.0023 7.2642 87.4547 7.37027 87.8425 7.58239C88.2303 7.79119 88.5319 8.10938 88.7473 8.53693C88.9628 8.96117 89.0705 9.49811 89.0705 10.1477V15H87.8972V10.2273C87.8972 9.62737 87.7414 9.16004 87.4299 8.82528C87.1183 8.48722 86.6908 8.31818 86.1472 8.31818C85.7727 8.31818 85.4379 8.39938 85.1429 8.56179C84.8513 8.72419 84.6209 8.96117 84.4519 9.27273C84.2828 9.58428 84.1983 9.96212 84.1983 10.4062ZM94.5355 7.36364V8.35795H90.5781V7.36364H94.5355ZM91.7315 5.53409H92.9048V12.8125C92.9048 13.1439 92.9529 13.3925 93.049 13.5582C93.1484 13.7206 93.2744 13.83 93.4268 13.8864C93.5826 13.9394 93.7467 13.9659 93.919 13.9659C94.0483 13.9659 94.1544 13.9593 94.2372 13.946C94.3201 13.9295 94.3864 13.9162 94.4361 13.9062L94.6747 14.9602C94.5952 14.9901 94.4841 15.0199 94.3416 15.0497C94.1991 15.0829 94.0185 15.0994 93.7997 15.0994C93.4683 15.0994 93.1435 15.0282 92.8253 14.8857C92.5104 14.7431 92.2486 14.526 92.0398 14.2344C91.8343 13.9427 91.7315 13.5748 91.7315 13.1307V5.53409ZM96.3004 15V7.36364H97.4737V15H96.3004ZM96.897 6.09091C96.6683 6.09091 96.4711 6.01302 96.3054 5.85724C96.143 5.70147 96.0618 5.5142 96.0618 5.29545C96.0618 5.0767 96.143 4.88944 96.3054 4.73366C96.4711 4.57789 96.6683 4.5 96.897 4.5C97.1257 4.5 97.3213 4.57789 97.4837 4.73366C97.6494 4.88944 97.7322 5.0767 97.7322 5.29545C97.7322 5.5142 97.6494 5.70147 97.4837 5.85724C97.3213 6.01302 97.1257 6.09091 96.897 6.09091ZM102.944 7.36364V8.35795H98.9863V7.36364H102.944ZM100.14 5.53409H101.313V12.8125C101.313 13.1439 101.361 13.3925 101.457 13.5582C101.557 13.7206 101.683 13.83 101.835 13.8864C101.991 13.9394 102.155 13.9659 102.327 13.9659C102.456 13.9659 102.563 13.9593 102.645 13.946C102.728 13.9295 102.795 13.9162 102.844 13.9062L103.083 14.9602C103.003 14.9901 102.892 15.0199 102.75 15.0497C102.607 15.0829 102.427 15.0994 102.208 15.0994C101.876 15.0994 101.552 15.0282 101.233 14.8857C100.919 14.7431 100.657 14.526 100.448 14.2344C100.242 13.9427 100.14 13.5748 100.14 13.1307V5.53409ZM106.046 4.81818V15H104.873V4.81818H106.046ZM111.397 15.1591C110.661 15.1591 110.026 14.9967 109.493 14.6719C108.962 14.3438 108.553 13.8864 108.265 13.2997C107.98 12.7098 107.837 12.0237 107.837 11.2415C107.837 10.4593 107.98 9.76989 108.265 9.1733C108.553 8.57339 108.954 8.10606 109.468 7.77131C109.985 7.43324 110.588 7.2642 111.277 7.2642C111.675 7.2642 112.068 7.33049 112.456 7.46307C112.843 7.59564 113.196 7.81108 113.515 8.10938C113.833 8.40436 114.086 8.79545 114.275 9.28267C114.464 9.76989 114.559 10.3698 114.559 11.0824V11.5795H108.672V10.5653H113.365C113.365 10.1345 113.279 9.75 113.107 9.41193C112.938 9.07386 112.696 8.80705 112.381 8.61151C112.069 8.41596 111.702 8.31818 111.277 8.31818C110.81 8.31818 110.406 8.43419 110.064 8.66619C109.726 8.89489 109.466 9.19318 109.284 9.56108C109.101 9.92898 109.01 10.3234 109.01 10.7443V11.4205C109.01 11.9972 109.11 12.486 109.309 12.8871C109.511 13.2848 109.791 13.5881 110.149 13.7969C110.507 14.0024 110.923 14.1051 111.397 14.1051C111.705 14.1051 111.983 14.062 112.232 13.9759C112.484 13.8864 112.701 13.7538 112.883 13.5781C113.065 13.3991 113.206 13.1771 113.306 12.9119L114.439 13.2301C114.32 13.6146 114.119 13.9527 113.838 14.2443C113.556 14.5327 113.208 14.758 112.794 14.9205C112.379 15.0795 111.914 15.1591 111.397 15.1591ZM119.227 15.1591C118.591 15.1591 118.029 14.9983 117.542 14.6768C117.054 14.352 116.673 13.8946 116.398 13.3047C116.123 12.7114 115.985 12.0104 115.985 11.2017C115.985 10.3996 116.123 9.7036 116.398 9.11364C116.673 8.52367 117.056 8.06794 117.547 7.74645C118.037 7.42495 118.604 7.2642 119.247 7.2642C119.744 7.2642 120.137 7.34706 120.425 7.51278C120.717 7.67519 120.939 7.8608 121.091 8.0696C121.247 8.27509 121.368 8.44413 121.454 8.5767H121.554V4.81818H122.727V15H121.593V13.8267H121.454C121.368 13.9659 121.245 14.1416 121.086 14.3537C120.927 14.5625 120.7 14.7498 120.405 14.9155C120.11 15.0779 119.717 15.1591 119.227 15.1591ZM119.386 14.1051C119.857 14.1051 120.254 13.9825 120.579 13.7372C120.904 13.4886 121.151 13.1456 121.32 12.7081C121.489 12.2673 121.574 11.7585 121.574 11.1818C121.574 10.6117 121.491 10.1129 121.325 9.68537C121.159 9.2545 120.914 8.91974 120.589 8.68111C120.264 8.43916 119.863 8.31818 119.386 8.31818C118.889 8.31818 118.475 8.44579 118.143 8.70099C117.815 8.95289 117.568 9.29593 117.402 9.73011C117.24 10.161 117.159 10.6449 117.159 11.1818C117.159 11.7254 117.242 12.2192 117.407 12.6634C117.576 13.1042 117.825 13.4555 118.153 13.7173C118.484 13.9759 118.895 14.1051 119.386 14.1051ZM129.851 11.8778V7.36364H131.025V15H129.851V13.7074H129.772C129.593 14.0952 129.314 14.425 128.936 14.6967C128.559 14.9652 128.081 15.0994 127.505 15.0994C127.027 15.0994 126.603 14.995 126.232 14.7862C125.861 14.5741 125.569 14.2559 125.357 13.8317C125.145 13.4041 125.039 12.8655 125.039 12.2159V7.36364H126.212V12.1364C126.212 12.6932 126.368 13.1373 126.679 13.4688C126.994 13.8002 127.395 13.9659 127.882 13.9659C128.174 13.9659 128.471 13.8913 128.772 13.7422C129.077 13.593 129.333 13.3643 129.538 13.0561C129.747 12.7479 129.851 12.3551 129.851 11.8778ZM133.173 15V7.36364H134.347V15H133.173ZM133.77 6.09091C133.541 6.09091 133.344 6.01302 133.178 5.85724C133.016 5.70147 132.935 5.5142 132.935 5.29545C132.935 5.0767 133.016 4.88944 133.178 4.73366C133.344 4.57789 133.541 4.5 133.77 4.5C133.999 4.5 134.194 4.57789 134.357 4.73366C134.522 4.88944 134.605 5.0767 134.605 5.29545C134.605 5.5142 134.522 5.70147 134.357 5.85724C134.194 6.01302 133.999 6.09091 133.77 6.09091ZM137.351 15.0795C137.106 15.0795 136.895 14.9917 136.719 14.8161C136.544 14.6404 136.456 14.4299 136.456 14.1847C136.456 13.9394 136.544 13.7289 136.719 13.5533C136.895 13.3776 137.106 13.2898 137.351 13.2898C137.596 13.2898 137.807 13.3776 137.982 13.5533C138.158 13.7289 138.246 13.9394 138.246 14.1847C138.246 14.3471 138.204 14.4962 138.121 14.6321C138.042 14.768 137.934 14.8774 137.798 14.9602C137.666 15.0398 137.517 15.0795 137.351 15.0795ZM143.453 15.1591C142.738 15.1591 142.121 14.9901 141.604 14.652C141.087 14.3139 140.689 13.8482 140.411 13.255C140.132 12.6617 139.993 11.9839 139.993 11.2216C139.993 10.446 140.136 9.7616 140.421 9.16832C140.709 8.57173 141.11 8.10606 141.624 7.77131C142.141 7.43324 142.744 7.2642 143.434 7.2642C143.971 7.2642 144.454 7.36364 144.885 7.5625C145.316 7.76136 145.669 8.03977 145.944 8.39773C146.219 8.75568 146.39 9.1733 146.456 9.65057H145.283C145.194 9.30256 144.995 8.99432 144.686 8.72585C144.382 8.45407 143.971 8.31818 143.453 8.31818C142.996 8.31818 142.595 8.4375 142.25 8.67614C141.909 8.91146 141.642 9.24455 141.45 9.67543C141.261 10.103 141.167 10.6051 141.167 11.1818C141.167 11.7718 141.259 12.2855 141.445 12.723C141.634 13.1605 141.899 13.5002 142.24 13.7422C142.585 13.9841 142.989 14.1051 143.453 14.1051C143.758 14.1051 144.035 14.0521 144.284 13.946C144.532 13.84 144.743 13.6875 144.915 13.4886C145.087 13.2898 145.21 13.0511 145.283 12.7727H146.456C146.39 13.2235 146.226 13.6295 145.964 13.9908C145.706 14.3487 145.363 14.6338 144.935 14.8459C144.511 15.0547 144.017 15.1591 143.453 15.1591ZM151.274 15.1591C150.584 15.1591 149.98 14.995 149.459 14.6669C148.942 14.3388 148.538 13.8797 148.246 13.2898C147.958 12.6998 147.814 12.0104 147.814 11.2216C147.814 10.4261 147.958 9.73177 148.246 9.13849C148.538 8.54522 148.942 8.08452 149.459 7.75639C149.98 7.42827 150.584 7.2642 151.274 7.2642C151.963 7.2642 152.566 7.42827 153.083 7.75639C153.604 8.08452 154.008 8.54522 154.297 9.13849C154.588 9.73177 154.734 10.4261 154.734 11.2216C154.734 12.0104 154.588 12.6998 154.297 13.2898C154.008 13.8797 153.604 14.3388 153.083 14.6669C152.566 14.995 151.963 15.1591 151.274 15.1591ZM151.274 14.1051C151.797 14.1051 152.228 13.9709 152.566 13.7024C152.904 13.4339 153.155 13.081 153.317 12.6435C153.48 12.206 153.561 11.732 153.561 11.2216C153.561 10.7112 153.48 10.2356 153.317 9.79474C153.155 9.35393 152.904 8.99763 152.566 8.72585C152.228 8.45407 151.797 8.31818 151.274 8.31818C150.75 8.31818 150.319 8.45407 149.981 8.72585C149.643 8.99763 149.393 9.35393 149.23 9.79474C149.068 10.2356 148.987 10.7112 148.987 11.2216C148.987 11.732 149.068 12.206 149.23 12.6435C149.393 13.081 149.643 13.4339 149.981 13.7024C150.319 13.9709 150.75 14.1051 151.274 14.1051ZM156.525 15V7.36364H157.659V8.55682H157.758C157.917 8.14915 158.174 7.83262 158.529 7.60724C158.883 7.37855 159.309 7.2642 159.806 7.2642C160.31 7.2642 160.729 7.37855 161.064 7.60724C161.402 7.83262 161.666 8.14915 161.855 8.55682H161.934C162.13 8.16241 162.423 7.84919 162.814 7.61719C163.205 7.38187 163.674 7.2642 164.221 7.2642C164.904 7.2642 165.462 7.47798 165.896 7.90554C166.331 8.32978 166.548 8.991 166.548 9.8892V15H165.374V9.8892C165.374 9.32576 165.22 8.92306 164.912 8.68111C164.604 8.43916 164.241 8.31818 163.823 8.31818C163.286 8.31818 162.87 8.48059 162.575 8.8054C162.28 9.12689 162.133 9.53456 162.133 10.0284V15H160.94V9.76989C160.94 9.3357 160.799 8.98603 160.517 8.72088C160.235 8.45241 159.873 8.31818 159.428 8.31818C159.124 8.31818 158.838 8.39938 158.573 8.56179C158.311 8.72419 158.099 8.94957 157.937 9.23793C157.778 9.52296 157.698 9.85275 157.698 10.2273V15H156.525Z" fill="#535862"/>
</svg>
